<svg width="127" height="210" viewBox="0 0 127 210" fill="none" xmlns="http://www.w3.org/2000/svg">
<path d="M102.308 17.8078C82.3894 0.364103 46.1371 -5.71591 1 10.3002V209H43.6295V130.922C81.7452 135.927 110.834 122.413 122.369 93.3838C129.891 65.8561 126.882 39.3294 102.308 17.8078Z" stroke="black"/>
<path d="M44.5 39.5C42.5 41 44 48 43 90H58C66.6667 90.5 91 86 86.5 58.5C83 47 76.5 39.5 44.5 39.5Z" stroke="black"/>
<path d="M57.5 90.2972C57.5 89.9619 57.4643 79.6342 57.4643 41.0059V40H43.5357L43 90.2972H57.5Z" stroke="black"/>
<path d="M58 208.999V132.547L43.5357 131.038V132.547L43.5 171V208.999H58Z" stroke="black"/>
</svg>
